<?xml version="1.0" encoding="UTF-8"?>
<svg width="59px" height="29px" viewBox="0 0 59 29" version="1.1" xmlns="http://www.w3.org/2000/svg" xmlns:xlink="http://www.w3.org/1999/xlink">
    <!-- Generator: Sketch 43.2 (39069) - http://www.bohemiancoding.com/sketch -->
    <title>Group</title>
    <desc>Created with Sketch.</desc>
    <defs></defs>
    <g id="Page-1" stroke="none" stroke-width="1" fill="none" fill-rule="evenodd">
        <g id="Group" transform="translate(0.000000, -1.000000)" fill="#000000">
            <text id="-copy" font-family="FontAwesome" font-size="32" font-weight="normal">
                <tspan x="0" y="27"></tspan>
            </text>
            <path d="M58.5714286,27 L58.5714286,29.2857143 L22,29.2857143 L22,27 L24.2857143,27 L58.5714286,27 Z M58.2857143,4.57142857 L58.2857143,12.3392857 C58.2857143,12.589287 58.169644,12.7648804 57.9375,12.8660714 C57.705356,12.9672624 57.4940486,12.92262 57.3035714,12.7321429 L55.1428571,10.5714286 L43.8392857,21.875 C43.7202375,21.9940482 43.5833341,22.0535714 43.4285714,22.0535714 C43.2738088,22.0535714 43.1369054,21.9940482 43.0178571,21.875 L38.8571429,17.7142857 L31.4285714,25.1428571 L28,21.7142857 L38.4464286,11.2678571 C38.5654768,11.1488089 38.7023802,11.0892857 38.8571429,11.0892857 C39.0119055,11.0892857 39.1488089,11.1488089 39.2678571,11.2678571 L43.4285714,15.4285714 L51.7142857,7.14285714 L49.5535714,4.98214286 C49.3630943,4.79166571 49.3184519,4.5803583 49.4196429,4.34821429 C49.5208338,4.11607027 49.6964273,4 49.9464286,4 L57.7142857,4 C57.8809532,4 58.0178566,4.05357089 58.125,4.16071429 C58.2321434,4.26785768 58.2857143,4.40476107 58.2857143,4.57142857 Z" id=""></path>
        </g>
    </g>
</svg>